<svg id="Layer_1" data-name="Layer 1" xmlns="http://www.w3.org/2000/svg" width="229.79" height="64.52" viewBox="0 0 229.79 64.52">
  <defs>
    <style>
      .cls-1 {
        fill: #f7f7f7;
      }
    </style>
  </defs>
  <title>170824_Merced_Logo_MasonSerif3</title>
  <g>
    <path class="cls-1" d="M5.24,13.29a5.2,5.2,0,0,1-4-1.36A5.32,5.32,0,0,1,0,8.17V.23H2.18V8a4,4,0,0,0,.73,2.67,3,3,0,0,0,2.39.86,2.75,2.75,0,0,0,2.28-.91A3.75,3.75,0,0,0,8.3,8.17V.23h2V8a5.63,5.63,0,0,1-1.25,3.91A4.91,4.91,0,0,1,5.24,13.29Z"/>
    <path class="cls-1" d="M13,.23H15.2l5.26,7.55q.52.75.84,1.29l.45.75h0q0-.15,0-.65t0-1.23V.24h2V13.07h-2L16.11,5A11.26,11.26,0,0,1,15.4,4c-.19-.33-.33-.57-.43-.72h0c0,.1,0,.3,0,.59s0,.61,0,1v8.27H13V.23Z"/>
    <path class="cls-1" d="M26.61.23h2.18V13.06H26.61Z"/>
    <path class="cls-1" d="M30.34.23h2.35l3,8.21q.27.75.44,1.36a7,7,0,0,0,.27.82h0c.05-.15.13-.43.25-.84s.26-.85.44-1.34L40,.23h2.18L37.37,13.06H35.29Z"/>
    <path class="cls-1" d="M43.56.23h7V2H45.72V5.47H50V7.21h-4.3v4h5v1.81H43.56V.23Z"/>
    <path class="cls-1" d="M52.94.23h3.93a5.33,5.33,0,0,1,3.33.91A3.16,3.16,0,0,1,61.38,3.8a3.53,3.53,0,0,1-.26,1.4,3,3,0,0,1-.7,1,3.46,3.46,0,0,1-1,.67,4.6,4.6,0,0,1-1.25.33v0a3,3,0,0,1,.56.54A14.1,14.1,0,0,1,59.55,9l2.81,4.08H59.91L57.47,9.42q-.46-.66-.76-1a4.77,4.77,0,0,0-.52-.59,1,1,0,0,0-.42-.25,2.06,2.06,0,0,0-.47,0h-.17v5.57H52.94V.23Zm3.85,5.64a2.72,2.72,0,0,0,1.83-.51,1.86,1.86,0,0,0,.58-1.47,1.76,1.76,0,0,0-.61-1.45,3,3,0,0,0-1.92-.49H55.12V5.88h1.68Z"/>
    <path class="cls-1" d="M66.67,13.29a6.53,6.53,0,0,1-1.38-.14,6,6,0,0,1-1.1-.34,5.22,5.22,0,0,1-.81-.42,4.23,4.23,0,0,1-.53-.39l1-1.52.35.27a3.89,3.89,0,0,0,.58.35,4.12,4.12,0,0,0,.83.3,4.26,4.26,0,0,0,1.08.13A2.48,2.48,0,0,0,68.36,11,1.62,1.62,0,0,0,69,9.73a1.49,1.49,0,0,0-.24-.86,2.44,2.44,0,0,0-.65-.64,6.34,6.34,0,0,0-.92-.52l-1.08-.53A11.13,11.13,0,0,1,65,6.57,4.27,4.27,0,0,1,64,5.8a3.31,3.31,0,0,1-.62-1,3.74,3.74,0,0,1-.22-1.36A3.19,3.19,0,0,1,63.53,2,3.27,3.27,0,0,1,64.38.91,3.74,3.74,0,0,1,65.64.24,5,5,0,0,1,67.18,0a7,7,0,0,1,1.34.12,6.53,6.53,0,0,1,1,.28,4.67,4.67,0,0,1,.74.35,4.82,4.82,0,0,1,.48.32L69.82,2.6a6.3,6.3,0,0,0-1-.53,3.79,3.79,0,0,0-1.58-.3,2.21,2.21,0,0,0-1.41.42,1.43,1.43,0,0,0-.54,1.19,1.36,1.36,0,0,0,.18.72,2.17,2.17,0,0,0,.49.55,3.58,3.58,0,0,0,.73.45l.93.43q.64.29,1.25.63A5.39,5.39,0,0,1,70,7a3.69,3.69,0,0,1,.8,1.11,3.58,3.58,0,0,1,.31,1.55,3.48,3.48,0,0,1-.32,1.5,3.32,3.32,0,0,1-.9,1.15,4.08,4.08,0,0,1-1.4.74A6.05,6.05,0,0,1,66.67,13.29Z"/>
    <path class="cls-1" d="M73.19.23h2.18V13.06H73.19Z"/>
    <path class="cls-1" d="M80.54,2H77V.23H86.3V2H82.74v11h-2.2Z"/>
    <path class="cls-1" d="M91,8.21l-4.28-8h2.43l3,6h0l3-6H97.3l-4.16,8v4.86H91V8.21Z"/>
    <path class="cls-1" d="M107.82,13.29a6.61,6.61,0,0,1-2.77-.55,6.17,6.17,0,0,1-3.31-3.57,7.28,7.28,0,0,1-.43-2.5,7.51,7.51,0,0,1,.42-2.51A6.28,6.28,0,0,1,103,2a6.12,6.12,0,0,1,2-1.48A6.54,6.54,0,0,1,107.77,0a6.78,6.78,0,0,1,2.77.54,5.9,5.9,0,0,1,2,1.45,6.41,6.41,0,0,1,1.25,2.11,7.29,7.29,0,0,1,.43,2.51,7.61,7.61,0,0,1-.42,2.52,6.34,6.34,0,0,1-1.24,2.14,6,6,0,0,1-2,1.48A6.51,6.51,0,0,1,107.82,13.29Zm-.06-1.77a4.09,4.09,0,0,0,1.85-.4,3.79,3.79,0,0,0,1.31-1.06,4.59,4.59,0,0,0,.78-1.54A6.52,6.52,0,0,0,112,6.67a6.85,6.85,0,0,0-.25-1.87,4.55,4.55,0,0,0-.77-1.56,3.76,3.76,0,0,0-1.3-1.07,4,4,0,0,0-1.82-.39,4.12,4.12,0,0,0-1.83.39,3.78,3.78,0,0,0-1.32,1,4.62,4.62,0,0,0-.8,1.54,6.27,6.27,0,0,0-.27,1.86,6.57,6.57,0,0,0,.26,1.87,4.78,4.78,0,0,0,.78,1.57,3.73,3.73,0,0,0,1.3,1.08A4,4,0,0,0,107.77,11.52Z"/>
    <path class="cls-1" d="M116.28.23h7.07V2h-4.89V5.61h4.3V7.36h-4.3v5.7h-2.18Z"/>
    <path class="cls-1" d="M134.39,13.29a6.66,6.66,0,0,1-2.78-.55,5.86,5.86,0,0,1-2-1.48,6.3,6.3,0,0,1-1.22-2.13A7.67,7.67,0,0,1,128,6.63a7.45,7.45,0,0,1,.42-2.5A6.26,6.26,0,0,1,129.62,2a6.06,6.06,0,0,1,2-1.46A6.68,6.68,0,0,1,134.43,0a7.58,7.58,0,0,1,2.13.26,6.08,6.08,0,0,1,1.61.74l-1,1.6A5,5,0,0,0,135.93,2a5.09,5.09,0,0,0-1.56-.21,4,4,0,0,0-1.79.39,3.86,3.86,0,0,0-1.29,1,4.42,4.42,0,0,0-.78,1.51,6.25,6.25,0,0,0-.26,1.81,6.58,6.58,0,0,0,.26,1.87,4.82,4.82,0,0,0,.78,1.57,3.75,3.75,0,0,0,1.3,1.08,4,4,0,0,0,1.84.39,4.61,4.61,0,0,0,1.76-.3,4.92,4.92,0,0,0,1.24-.72l.94,1.52a4.12,4.12,0,0,1-.65.47,4.8,4.8,0,0,1-.92.42,8.64,8.64,0,0,1-1.13.31A6.4,6.4,0,0,1,134.39,13.29Z"/>
    <path class="cls-1" d="M144.06.23h2.1l5,12.83h-2.37l-1-2.76h-5.45l-1,2.76h-2.18Zm3.06,8.3-1.33-3.66q-.29-.81-.45-1.35t-.28-.87h0c-.06.23-.15.53-.27.91s-.26.81-.44,1.31L143,8.54Z"/>
    <path class="cls-1" d="M152.68.23h2.18V11.29h4.89v1.77h-7.07V.23Z"/>
    <path class="cls-1" d="M161.9.23h2.18V13.06H161.9Z"/>
    <path class="cls-1" d="M166.64.23h7.07V2h-4.89V5.61h4.3V7.36h-4.3v5.7h-2.18V.23Z"/>
    <path class="cls-1" d="M181,13.29a6.62,6.62,0,0,1-2.77-.55,6.17,6.17,0,0,1-3.31-3.57,7.26,7.26,0,0,1-.43-2.5,7.53,7.53,0,0,1,.42-2.51A6.28,6.28,0,0,1,176.15,2a6.14,6.14,0,0,1,2-1.48A6.54,6.54,0,0,1,180.93,0a6.78,6.78,0,0,1,2.77.54,5.91,5.91,0,0,1,2,1.45A6.41,6.41,0,0,1,187,4.1a7.29,7.29,0,0,1,.43,2.51A7.61,7.61,0,0,1,187,9.13a6.35,6.35,0,0,1-1.24,2.14,6,6,0,0,1-2,1.48A6.51,6.51,0,0,1,181,13.29Zm-.06-1.77a4.1,4.1,0,0,0,1.85-.4,3.8,3.8,0,0,0,1.31-1.06,4.59,4.59,0,0,0,.78-1.54,6.48,6.48,0,0,0,.26-1.86,6.89,6.89,0,0,0-.25-1.87,4.57,4.57,0,0,0-.77-1.56,3.77,3.77,0,0,0-1.3-1.07A4,4,0,0,0,181,1.77a4.12,4.12,0,0,0-1.83.39,3.79,3.79,0,0,0-1.32,1,4.62,4.62,0,0,0-.8,1.54,6.24,6.24,0,0,0-.27,1.86A6.61,6.61,0,0,0,177,8.48a4.8,4.8,0,0,0,.78,1.57,3.75,3.75,0,0,0,1.3,1.08A4,4,0,0,0,180.93,11.52Z"/>
    <path class="cls-1" d="M189.45.23h3.93a5.32,5.32,0,0,1,3.33.91,3.16,3.16,0,0,1,1.18,2.65,3.53,3.53,0,0,1-.26,1.4,3,3,0,0,1-.7,1,3.49,3.49,0,0,1-1,.67,4.6,4.6,0,0,1-1.25.33v0a3,3,0,0,1,.56.54A14.11,14.11,0,0,1,196.05,9l2.81,4.08h-2.45L194,9.42q-.46-.66-.76-1a4.77,4.77,0,0,0-.52-.59,1,1,0,0,0-.42-.25,2.06,2.06,0,0,0-.47,0h-.17v5.57h-2.18V.23Zm3.85,5.64a2.71,2.71,0,0,0,1.83-.51,1.85,1.85,0,0,0,.58-1.47,1.76,1.76,0,0,0-.61-1.45,3,3,0,0,0-1.92-.49h-1.56V5.88h1.68Z"/>
    <path class="cls-1" d="M200.33.23h2.18l5.26,7.55q.52.75.84,1.29l.45.75h0c0-.1,0-.32,0-.65s0-.74,0-1.23V.24h2V13.07h-2l-5.59-8a11.26,11.26,0,0,1-.7-1.07q-.28-.49-.43-.72h0c0,.1,0,.3,0,.59s0,.61,0,1v8.27h-2V.23Z"/>
    <path class="cls-1" d="M213.91.23h2.18V13.06h-2.18Z"/>
    <path class="cls-1" d="M222.6.23h2.1l5,12.83h-2.37l-1-2.76h-5.45l-1,2.76h-2.18Zm3.06,8.3-1.33-3.66q-.29-.81-.45-1.35t-.28-.87h0c-.06.23-.15.53-.27.91s-.26.81-.44,1.31L221.5,8.54Z"/>
  </g>
  <g>
    <path class="cls-1" d="M124.69,62.4a7.11,7.11,0,0,1-4.25-1.77c-3.74-2.72-14.11-15.53-14.11-15.53,5.5-2.32,8.88-6.83,8.88-12,0-6.22-6-10.55-14.58-10.55-1.89,0-4.49.11-6.58.2-1.49.06-2.75.12-3.4.12-1.35,0-2.29-.09-3.88-.23l-2.61-.22.14,2h.53a2.3,2.3,0,0,1,.64.07c3.14.31,3.65,1.2,3.65,3.21V58.82c0,2-.51,2.89-3.72,3.22a2.11,2.11,0,0,1-.58.05H84.3l-.15,2L85.7,64c2.38-.21,3.8-.32,4.94-.32h2.43c1.14,0,2.56.11,5,.32l1.55.1-.16-2H98.9a2.5,2.5,0,0,1-.66-.07c-3.15-.32-3.65-1.21-3.65-3.21V46.39h4.8L117.57,64.1a21.27,21.27,0,0,1,3.61-.36,31.77,31.77,0,0,1,4.11.37l-.21-1.71ZM94.59,43.74v-16c0-2.35.12-2.57,4.23-2.57,7.61,0,11,4.73,11,9.42,0,4-2.48,7.39-6.65,9.17Z"/>
    <path class="cls-1" d="M84.73,54.8l-2.44.3-.14.23c-2.46,4-3.21,4.92-7.77,4.92H67.52c-2.7,0-2.7,0-2.7-3.14V42.7H79.29V39.52H64.82V26.08l10.81.12c3.57.06,3.86.06,5,4.26l.11.42h2l-1.41-8H60.87c-1.18,0-2.65-.13-4.94-.33l-1.56-.12.15,2H55a2.41,2.41,0,0,1,.66.07c3.13.31,3.64,1.2,3.64,3.21V58.77c0,2-.51,2.89-3.7,3.22A2.32,2.32,0,0,1,55,62h-.52l-.15,2,1.56-.1c2.38-.21,3.79-.32,4.94-.32,0,0,6.07-.06,10,0s10,.32,10,.33l.45,0,.11-.44c.14-.54.24-1,.35-1.5a19,19,0,0,1,2.41-6.26Z"/>
    <path class="cls-1" d="M154.64,51.62l-.06.5c-.88,8.13-5.47,9.79-12.1,9.79-9.79,0-17.25-7.68-17.73-18.27A20,20,0,0,1,129.92,29a14.79,14.79,0,0,1,10.9-4.7c7.51,0,11.33,2.48,13.15,8.56l.12.4h1.71l-.54-9.73-.8.5c-.81.5-1.84.12-3.42-.47a24.16,24.16,0,0,0-9.39-1.85c-13.2,0-23.54,9.69-23.54,22.05,0,12,9.9,20.78,23.54,20.78,5.06,0,11.41-1.55,13.88-3.39l.2-.14,1.14-9.37h-2.23Z"/>
    <path class="cls-1" d="M184.71,55.1l-.15.23c-2.55,4.17-3.37,4.91-7.77,4.91H170c-2.7,0-2.7,0-2.7-3.14V42.7h14.46V39.52H167.25V26.08l10.83.13c3.55.06,3.85.06,5,4.25l.11.42h2l-1.4-8H163.3c-1.16,0-2.64-.12-4.93-.32l-1.58-.12.19,2h.52a2.42,2.42,0,0,1,.63.06c3.15.32,3.65,1.21,3.65,3.2V58.76c0,2-.5,2.89-3.72,3.22a1.92,1.92,0,0,1-.56.06H157l-.18,2,1.58-.1c2.37-.22,3.78-.33,4.93-.33,0,0,6.07-.06,10,0s10,.33,10,.33l.46,0,.12-.44c.14-.56.26-1.06.36-1.54a19.2,19.2,0,0,1,2.4-6.22l.53-1Z"/>
    <path class="cls-1" d="M206.26,22.51c-2.73,0-13,.32-13.11.32-1.19,0-2.66-.12-5-.32l-1.53-.12.14,2h.52a2.59,2.59,0,0,1,.65.06c3.15.32,3.65,1.21,3.65,3.2V58.76c0,2-.5,2.89-3.71,3.22a2.21,2.21,0,0,1-.59.06h-.52l-.14,2,1.54-.1c2.38-.22,3.8-.33,4.94-.33.1,0,9.75.13,13.12.13,13.19,0,23.53-9.35,23.53-21.29C229.79,30.9,219.89,22.51,206.26,22.51Zm-.06,38.58c-8.27,0-9.1-1.48-9.1-5.13V25.61c1.85-.06,7.82-.25,9.1-.25,10,0,17.34,7.27,17.34,17.28C223.54,53,215.92,61.08,206.2,61.08Z"/>
    <path class="cls-1" d="M51.73,24.28a2.28,2.28,0,0,1,.6-.05h.45l.15-1.84-1.62.1c-2.08.18-3.59.31-4.74.31H44.15c-1.16,0-2.65-.13-4.71-.3l-1.67-.11.15,1.84h.45a2.59,2.59,0,0,1,.65.06c1.85.2,2.83.56,3.31,1.39L26.49,58.57,10.54,25.8c.45-.91,1.44-1.31,3.4-1.52a2.35,2.35,0,0,1,.6-.05H15l.15-1.84-1.62.1c-2.08.18-3.59.31-4.74.31H6.38c-1.16,0-2.65-.13-4.71-.3L0,22.38l.15,1.84H.61a2.56,2.56,0,0,1,.64.06c2.88.3,3.68,1,3.68,3.26V58.76c0,2.26-.79,3-3.71,3.26a2.7,2.7,0,0,1-.6,0H.15L0,63.93l1.47-.11c2.18-.19,3.7-.31,4.9-.31H8.79c1.19,0,2.71.12,4.9.31l1.46.11L15,62.07h-.46a2.82,2.82,0,0,1-.64-.05c-2.89-.3-3.68-1-3.68-3.26V35.21L25.14,64h2.72L42.7,35V58.76c0,2.26-.79,3-3.71,3.26a2.73,2.73,0,0,1-.61,0h-.45l-.15,1.86,1.48-.11c2.18-.19,3.7-.31,4.9-.31h2.41c1.19,0,2.71.12,4.9.31l1.46.11-.15-1.86h-.45a2.86,2.86,0,0,1-.65-.05c-2.89-.3-3.68-1-3.68-3.26V27.54C48,25.29,48.79,24.59,51.73,24.28Z"/>
  </g>
</svg>
